<?xml version="1.0" standalone="no"?>
<svg xmlns:xlink="http://www.w3.org/1999/xlink" id="wave" style="transform:rotate(0deg); transition: 0.3s" viewBox="0 0 1440 200" version="1.1" xmlns="http://www.w3.org/2000/svg"><defs><linearGradient id="sw-gradient-0" x1="0" x2="0" y1="1" y2="0"><stop stop-color="rgba(243, 106, 62, 1)" offset="0%"/><stop stop-color="rgba(255, 179, 11, 1)" offset="100%"/></linearGradient></defs><path style="transform:translate(0, 0px); opacity:1" fill="url(#sw-gradient-0)" d="M0,180L26.7,150C53.3,120,107,60,160,36.7C213.3,13,267,27,320,46.7C373.3,67,427,93,480,100C533.3,107,587,93,640,93.3C693.3,93,747,107,800,123.3C853.3,140,907,160,960,166.7C1013.3,173,1067,167,1120,163.3C1173.3,160,1227,160,1280,153.3C1333.3,147,1387,133,1440,116.7C1493.3,100,1547,80,1600,70C1653.3,60,1707,60,1760,73.3C1813.3,87,1867,113,1920,120C1973.3,127,2027,113,2080,110C2133.3,107,2187,113,2240,116.7C2293.3,120,2347,120,2400,106.7C2453.3,93,2507,67,2560,50C2613.3,33,2667,27,2720,26.7C2773.3,27,2827,33,2880,53.3C2933.3,73,2987,107,3040,116.7C3093.3,127,3147,113,3200,100C3253.3,87,3307,73,3360,60C3413.3,47,3467,33,3520,46.7C3573.3,60,3627,100,3680,120C3733.3,140,3787,140,3813,140L3840,140L3840,200L3813.3,200C3786.7,200,3733,200,3680,200C3626.7,200,3573,200,3520,200C3466.7,200,3413,200,3360,200C3306.7,200,3253,200,3200,200C3146.7,200,3093,200,3040,200C2986.7,200,2933,200,2880,200C2826.7,200,2773,200,2720,200C2666.7,200,2613,200,2560,200C2506.7,200,2453,200,2400,200C2346.7,200,2293,200,2240,200C2186.7,200,2133,200,2080,200C2026.7,200,1973,200,1920,200C1866.7,200,1813,200,1760,200C1706.7,200,1653,200,1600,200C1546.7,200,1493,200,1440,200C1386.7,200,1333,200,1280,200C1226.7,200,1173,200,1120,200C1066.7,200,1013,200,960,200C906.7,200,853,200,800,200C746.7,200,693,200,640,200C586.7,200,533,200,480,200C426.7,200,373,200,320,200C266.7,200,213,200,160,200C106.7,200,53,200,27,200L0,200Z"/><defs><linearGradient id="sw-gradient-1" x1="0" x2="0" y1="1" y2="0"><stop stop-color="rgba(243, 106, 62, 1)" offset="0%"/><stop stop-color="rgba(255, 179, 11, 1)" offset="100%"/></linearGradient></defs><path style="transform:translate(0, 50px); opacity:0.9" fill="url(#sw-gradient-1)" d="M0,40L26.7,46.7C53.3,53,107,67,160,90C213.3,113,267,147,320,136.7C373.3,127,427,73,480,63.3C533.3,53,587,87,640,106.7C693.3,127,747,133,800,116.7C853.3,100,907,60,960,40C1013.3,20,1067,20,1120,23.3C1173.3,27,1227,33,1280,53.3C1333.3,73,1387,107,1440,116.7C1493.3,127,1547,113,1600,106.7C1653.3,100,1707,100,1760,103.3C1813.3,107,1867,113,1920,106.7C1973.3,100,2027,80,2080,76.7C2133.3,73,2187,87,2240,86.7C2293.3,87,2347,73,2400,70C2453.3,67,2507,73,2560,70C2613.3,67,2667,53,2720,50C2773.3,47,2827,53,2880,50C2933.3,47,2987,33,3040,36.7C3093.3,40,3147,60,3200,86.7C3253.3,113,3307,147,3360,143.3C3413.3,140,3467,100,3520,93.3C3573.3,87,3627,113,3680,103.3C3733.3,93,3787,47,3813,23.3L3840,0L3840,200L3813.3,200C3786.7,200,3733,200,3680,200C3626.7,200,3573,200,3520,200C3466.7,200,3413,200,3360,200C3306.7,200,3253,200,3200,200C3146.7,200,3093,200,3040,200C2986.7,200,2933,200,2880,200C2826.7,200,2773,200,2720,200C2666.7,200,2613,200,2560,200C2506.7,200,2453,200,2400,200C2346.7,200,2293,200,2240,200C2186.7,200,2133,200,2080,200C2026.7,200,1973,200,1920,200C1866.7,200,1813,200,1760,200C1706.7,200,1653,200,1600,200C1546.7,200,1493,200,1440,200C1386.7,200,1333,200,1280,200C1226.7,200,1173,200,1120,200C1066.7,200,1013,200,960,200C906.7,200,853,200,800,200C746.7,200,693,200,640,200C586.7,200,533,200,480,200C426.7,200,373,200,320,200C266.7,200,213,200,160,200C106.7,200,53,200,27,200L0,200Z"/></svg>