<?xml version="1.0" standalone="no"?>
<svg xmlns:xlink="http://www.w3.org/1999/xlink" id="wave" style="transform:rotate(180deg); transition: 0.3s" viewBox="0 0 1440 250" version="1.1" xmlns="http://www.w3.org/2000/svg"><defs><linearGradient id="sw-gradient-0" x1="0" x2="0" y1="1" y2="0"><stop stop-color="rgba(86, 102, 160, 1)" offset="0%"/><stop stop-color="rgba(86, 102, 160, 1)" offset="100%"/></linearGradient></defs><path style="transform:translate(0, 0px); opacity:1" fill="url(#sw-gradient-0)" d="M0,150L21.8,158.3C43.6,167,87,183,131,183.3C174.5,183,218,167,262,150C305.5,133,349,117,393,100C436.4,83,480,67,524,87.5C567.3,108,611,167,655,187.5C698.2,208,742,192,785,183.3C829.1,175,873,175,916,175C960,175,1004,175,1047,183.3C1090.9,192,1135,208,1178,191.7C1221.8,175,1265,125,1309,100C1352.7,75,1396,75,1440,91.7C1483.6,108,1527,142,1571,129.2C1614.5,117,1658,58,1702,33.3C1745.5,8,1789,17,1833,25C1876.4,33,1920,42,1964,62.5C2007.3,83,2051,117,2095,137.5C2138.2,158,2182,167,2225,154.2C2269.1,142,2313,108,2356,116.7C2400,125,2444,175,2487,195.8C2530.9,217,2575,208,2618,187.5C2661.8,167,2705,133,2749,129.2C2792.7,125,2836,150,2880,137.5C2923.6,125,2967,75,3011,79.2C3054.5,83,3098,142,3120,170.8L3141.8,200L3141.8,250L3120,250C3098.2,250,3055,250,3011,250C2967.3,250,2924,250,2880,250C2836.4,250,2793,250,2749,250C2705.5,250,2662,250,2618,250C2574.5,250,2531,250,2487,250C2443.6,250,2400,250,2356,250C2312.7,250,2269,250,2225,250C2181.8,250,2138,250,2095,250C2050.9,250,2007,250,1964,250C1920,250,1876,250,1833,250C1789.1,250,1745,250,1702,250C1658.2,250,1615,250,1571,250C1527.3,250,1484,250,1440,250C1396.4,250,1353,250,1309,250C1265.5,250,1222,250,1178,250C1134.5,250,1091,250,1047,250C1003.6,250,960,250,916,250C872.7,250,829,250,785,250C741.8,250,698,250,655,250C610.9,250,567,250,524,250C480,250,436,250,393,250C349.1,250,305,250,262,250C218.2,250,175,250,131,250C87.3,250,44,250,22,250L0,250Z"/><defs><linearGradient id="sw-gradient-1" x1="0" x2="0" y1="1" y2="0"><stop stop-color="rgba(114, 137, 218, 1)" offset="0%"/><stop stop-color="rgba(114, 137, 218, 1)" offset="100%"/></linearGradient></defs><path style="transform:translate(0, 50px); opacity:0.9" fill="url(#sw-gradient-1)" d="M0,200L21.8,166.7C43.6,133,87,67,131,58.3C174.5,50,218,100,262,116.7C305.5,133,349,117,393,104.2C436.4,92,480,83,524,100C567.3,117,611,158,655,150C698.2,142,742,83,785,87.5C829.1,92,873,158,916,187.5C960,217,1004,208,1047,187.5C1090.9,167,1135,133,1178,116.7C1221.8,100,1265,100,1309,83.3C1352.7,67,1396,33,1440,33.3C1483.6,33,1527,67,1571,104.2C1614.5,142,1658,183,1702,195.8C1745.5,208,1789,192,1833,162.5C1876.4,133,1920,92,1964,75C2007.3,58,2051,67,2095,66.7C2138.2,67,2182,58,2225,75C2269.1,92,2313,133,2356,141.7C2400,150,2444,125,2487,108.3C2530.9,92,2575,83,2618,75C2661.8,67,2705,58,2749,62.5C2792.7,67,2836,83,2880,83.3C2923.6,83,2967,67,3011,50C3054.5,33,3098,17,3120,8.3L3141.8,0L3141.8,250L3120,250C3098.2,250,3055,250,3011,250C2967.3,250,2924,250,2880,250C2836.4,250,2793,250,2749,250C2705.5,250,2662,250,2618,250C2574.5,250,2531,250,2487,250C2443.6,250,2400,250,2356,250C2312.7,250,2269,250,2225,250C2181.8,250,2138,250,2095,250C2050.9,250,2007,250,1964,250C1920,250,1876,250,1833,250C1789.1,250,1745,250,1702,250C1658.2,250,1615,250,1571,250C1527.3,250,1484,250,1440,250C1396.4,250,1353,250,1309,250C1265.5,250,1222,250,1178,250C1134.5,250,1091,250,1047,250C1003.6,250,960,250,916,250C872.7,250,829,250,785,250C741.8,250,698,250,655,250C610.9,250,567,250,524,250C480,250,436,250,393,250C349.1,250,305,250,262,250C218.2,250,175,250,131,250C87.3,250,44,250,22,250L0,250Z"/></svg>