<?xml version="1.0" standalone="no"?>
<svg xmlns:xlink="http://www.w3.org/1999/xlink" id="wave" style="transform:rotate(0deg); transition: 0.3s" viewBox="0 0 1440 100" version="1.1" xmlns="http://www.w3.org/2000/svg"><defs><linearGradient id="sw-gradient-0" x1="0" x2="0" y1="1" y2="0"><stop stop-color="rgba(101, 254, 218, 1)" offset="0%"/><stop stop-color="rgba(73.965, 168.909, 146.569, 1)" offset="100%"/></linearGradient></defs><path style="transform:translate(0, 0px); opacity:1" fill="url(#sw-gradient-0)" d="M0,70L80,61.7C160,53,320,37,480,36.7C640,37,800,53,960,51.7C1120,50,1280,30,1440,26.7C1600,23,1760,37,1920,40C2080,43,2240,37,2400,38.3C2560,40,2720,50,2880,51.7C3040,53,3200,47,3360,45C3520,43,3680,47,3840,50C4000,53,4160,57,4320,51.7C4480,47,4640,33,4800,30C4960,27,5120,33,5280,41.7C5440,50,5600,60,5760,56.7C5920,53,6080,37,6240,40C6400,43,6560,67,6720,75C6880,83,7040,77,7200,71.7C7360,67,7520,63,7680,65C7840,67,8000,73,8160,68.3C8320,63,8480,47,8640,33.3C8800,20,8960,10,9120,13.3C9280,17,9440,33,9600,48.3C9760,63,9920,77,10080,75C10240,73,10400,57,10560,53.3C10720,50,10880,60,11040,55C11200,50,11360,30,11440,20L11520,10L11520,100L11440,100C11360,100,11200,100,11040,100C10880,100,10720,100,10560,100C10400,100,10240,100,10080,100C9920,100,9760,100,9600,100C9440,100,9280,100,9120,100C8960,100,8800,100,8640,100C8480,100,8320,100,8160,100C8000,100,7840,100,7680,100C7520,100,7360,100,7200,100C7040,100,6880,100,6720,100C6560,100,6400,100,6240,100C6080,100,5920,100,5760,100C5600,100,5440,100,5280,100C5120,100,4960,100,4800,100C4640,100,4480,100,4320,100C4160,100,4000,100,3840,100C3680,100,3520,100,3360,100C3200,100,3040,100,2880,100C2720,100,2560,100,2400,100C2240,100,2080,100,1920,100C1760,100,1600,100,1440,100C1280,100,1120,100,960,100C800,100,640,100,480,100C320,100,160,100,80,100L0,100Z"/><defs><linearGradient id="sw-gradient-1" x1="0" x2="0" y1="1" y2="0"><stop stop-color="rgba(101, 254, 218, 1)" offset="0%"/><stop stop-color="rgba(49.149, 123.373, 105.909, 1)" offset="100%"/></linearGradient></defs><path style="transform:translate(0, 50px); opacity:0.9" fill="url(#sw-gradient-1)" d="M0,0L80,8.3C160,17,320,33,480,33.3C640,33,800,17,960,8.3C1120,0,1280,0,1440,5C1600,10,1760,20,1920,35C2080,50,2240,70,2400,76.7C2560,83,2720,77,2880,65C3040,53,3200,37,3360,25C3520,13,3680,7,3840,6.7C4000,7,4160,13,4320,26.7C4480,40,4640,60,4800,68.3C4960,77,5120,73,5280,65C5440,57,5600,43,5760,33.3C5920,23,6080,17,6240,13.3C6400,10,6560,10,6720,13.3C6880,17,7040,23,7200,25C7360,27,7520,23,7680,23.3C7840,23,8000,27,8160,28.3C8320,30,8480,30,8640,33.3C8800,37,8960,43,9120,40C9280,37,9440,23,9600,30C9760,37,9920,63,10080,66.7C10240,70,10400,50,10560,45C10720,40,10880,50,11040,46.7C11200,43,11360,27,11440,18.3L11520,10L11520,100L11440,100C11360,100,11200,100,11040,100C10880,100,10720,100,10560,100C10400,100,10240,100,10080,100C9920,100,9760,100,9600,100C9440,100,9280,100,9120,100C8960,100,8800,100,8640,100C8480,100,8320,100,8160,100C8000,100,7840,100,7680,100C7520,100,7360,100,7200,100C7040,100,6880,100,6720,100C6560,100,6400,100,6240,100C6080,100,5920,100,5760,100C5600,100,5440,100,5280,100C5120,100,4960,100,4800,100C4640,100,4480,100,4320,100C4160,100,4000,100,3840,100C3680,100,3520,100,3360,100C3200,100,3040,100,2880,100C2720,100,2560,100,2400,100C2240,100,2080,100,1920,100C1760,100,1600,100,1440,100C1280,100,1120,100,960,100C800,100,640,100,480,100C320,100,160,100,80,100L0,100Z"/></svg>